<?xml version="1.0" encoding="UTF-8"?>
<svg width="320px" height="124px" viewBox="0 0 320 124" version="1.1" xmlns="http://www.w3.org/2000/svg" xmlns:xlink="http://www.w3.org/1999/xlink">
    <!-- Generator: Sketch 53.2 (72643) - https://sketchapp.com -->
    <title>composition-9</title>
    <desc>Created with Sketch.</desc>
    <g id="Welcome" stroke="none" stroke-width="1" fill="none" fill-rule="evenodd">
        <g id="Mobile-Portrait" transform="translate(0.000000, -639.000000)" fill-rule="nonzero">
            <g id="composition-9" transform="translate(0.000000, 639.000000)">
                <path d="M263.951302,58.9983183 C260.78042,68.1115922 255.506403,76.0186975 248.646945,79.815895 C240.946233,84.1044944 231.918927,81.3794468 224.41235,77.6269223 C216.743994,73.8297249 211.372909,66.1459841 209.593333,55.1117751 C208.007892,45.1943888 209.755112,34.517563 212.990706,25.5829808 C217.876452,12.1811074 228.55391,1.45960876 239.45786,0.119421421 C250.91186,-1.26543883 263.271827,9.54540568 266.766268,24.6895226 C269.387098,35.9024233 267.54281,48.634203 263.951302,58.9983183 Z" id="Path" fill-opacity="0.690614073" fill="#C59537"></path>
                <path d="M0.974289365,123.708481 C6.04891131,115.213451 12.1255287,107.657345 18.3314358,100.727189 C24.9575345,93.305216 32.0038249,86.5539028 39.3086947,80.4732499 C52.7548267,69.2061577 67.3968888,59.3250967 82.8793341,54.7198963 C91.9942601,52.0372553 101.400088,51.1877523 110.676626,51.8137019 C120.082454,52.4396514 129.068091,55.1670031 138.021404,59.0568326 C156.930028,67.2388876 175.967941,76.5387097 196.072494,73.9454901 C205.445999,72.7383017 214.366991,68.9378936 223.514239,66.2105419 C231.530203,63.796165 239.804745,63.1255048 247.982321,63.8855864 C264.111215,65.4504603 279.658305,73.4536726 293.104437,85.6596891 C302.768844,94.4229831 310.720163,105.645365 318.445224,117.448985 C319.123995,118.477331 320.416893,117.13601 319.867411,115.928822 C315.374593,106.629 309.524233,98.6257873 303.318326,91.5167886 C297.144741,84.4525007 290.35703,78.4165584 283.18145,73.543094 C268.862612,63.796165 252.830686,58.9674112 236.863404,60.0851783 C232.8231,60.3534424 228.782796,61.0688133 224.807137,62.1418697 C220.314318,63.3043475 215.918468,65.1374855 211.457972,66.6129381 C202.149111,69.6532645 192.678638,71.4416918 183.111198,70.6368995 C172.961954,69.7873966 162.974323,65.8975671 153.277593,61.8736056 C144.001055,58.0284869 134.821484,53.2444437 125.286366,50.6959348 C107.573673,45.9566024 88.6004047,47.4320549 71.4695153,55.3905565 C56.730486,62.2312911 42.8318398,72.827723 30.0321565,84.9443182 C18.8162723,95.5407501 8.57006107,107.836188 0.166228544,122.635424 C-0.35093038,123.350795 0.45713044,124.557984 0.974289365,123.708481 L0.974289365,123.708481 Z" id="Path" fill="#282429"></path>
            </g>
        </g>
    </g>
</svg>