<?xml version="1.0" encoding="UTF-8"?>
<svg width="320px" height="428px" viewBox="0 0 320 428" version="1.1" xmlns="http://www.w3.org/2000/svg" xmlns:xlink="http://www.w3.org/1999/xlink">
    <!-- Generator: Sketch 53.2 (72643) - https://sketchapp.com -->
    <title>composition-1</title>
    <desc>Created with Sketch.</desc>
    <g id="Welcome" stroke="none" stroke-width="1" fill="none" fill-rule="evenodd">
        <g id="Mobile-Portrait" transform="translate(0.000000, -1071.000000)" fill-rule="nonzero">
            <g id="composition-1" transform="translate(0.000000, 1071.000000)">
                <path d="M275.057502,313.468732 C254.200423,343.385702 225.847832,369.471578 195.865781,391.554176 C167.792526,412.17321 131.85131,432.060461 94.5134144,427.282355 C62.4829007,423.14994 40.6481464,400.206422 22.5844265,376.87549 C6.75539353,349.196912 -0.972899027,317.945516 0.0978884965,286.651074 C1.16867602,253.850023 12.8542268,221.866845 32.3611821,194.575681 C51.7284695,167.456701 80.5000647,142.791343 114.206594,132.202028 C152.289385,120.23524 191.303295,136.119214 225.568496,151.185313 C256.155774,164.615665 286.091269,183.555905 296.706032,214.850347 C308.205359,248.813641 295.123129,284.714004 275.057502,313.468732 Z" id="Path" fill-opacity="0.293952142" fill="#D08C91"></path>
                <g id="Group" transform="translate(39.000000, 42.000000)" fill="#A72B25">
                    <path d="M55.9550562,377.482314 C60.8977528,356.774859 65.2342697,335.894842 67.0994382,314.755982 C68.0320225,304.445395 68.0786517,294.30737 67.3792135,284.212486 C66.6797753,274.117602 65.1876404,264.108999 63.0893258,254.014115 C61.0376404,243.962371 59.0325843,233.867487 59.5921348,223.643181 C60.1983146,212.383503 65.2808989,201.986635 68.1719101,191.158361 C73.3477528,171.141155 71.8089888,150.261138 74.9797753,130.028229 C75.7258427,125.19649 76.8449438,120.407891 78.3837079,115.748714 C79.9224719,111.089536 81.8342697,106.559781 84.305618,102.159447 C89.3882022,93.1862162 96.3825843,85.205218 103.610112,77.6124846 C110.324719,70.5805781 116.992697,63.5055311 123.847191,56.5599056 C131.121348,49.1828749 138.908427,43.4451843 149.073596,39.8645202 C157.653371,36.8015426 166.839326,35.0327808 175.698876,32.6600516 C186.376966,29.8127766 196.961798,26.6635178 207.546629,23.3848375 C216.126404,20.7101246 224.939326,18.380536 232.120225,13.0311101 C235.803933,10.3132567 239.021348,7.03457637 242.658427,4.27358241 C245.875843,1.81457216 245.549438,3.88531763 246.06236,6.56003053 C246.528652,9.01904079 246.948315,11.4349105 247.554494,13.8507802 C247.694382,14.4116071 248.580337,14.1959045 248.487079,13.6350776 C247.741011,9.79557034 247.83427,5.00697143 245.922472,1.51258844 C245.782584,1.25374526 245.362921,1.12432366 245.083146,1.29688579 C241.073034,3.75589604 237.669101,6.86201425 234.17191,9.8818514 C229.275843,14.1096234 224.006742,16.7843363 217.851685,18.9413628 C206.614045,22.7808701 195.143258,26.0595504 183.76573,29.2950902 C173.320787,32.2286463 162.596067,34.558235 152.197753,37.6643532 C142.825281,40.4684877 134.851685,44.7825407 127.810674,51.1241988 C119.510674,58.5012295 112.329775,66.9999141 104.589326,74.8514907 C97.0820225,82.4442241 90.0410112,90.3820817 84.3988764,99.2258905 C78.8033708,107.940278 75.8191011,117.517476 74.0005618,127.353517 C72.2286517,137.189558 71.6691011,147.327582 71.0629213,157.293045 C70.55,166.481978 69.8039326,175.670911 68.1719101,184.773563 C66.4,194.652744 62.2033708,203.884818 59.7786517,213.591437 C55.4421348,230.631947 60.7578652,247.97444 63.9752809,264.842388 C71.1095506,302.460931 62.8561798,340.252036 55.255618,377.396033 C55.1157303,377.870578 55.8617978,377.913719 55.9550562,377.482314 Z" id="Path"></path>
                    <path d="M67.5657303,191.762329 C72.6483146,183.953893 79.1297753,177.525954 86.3573034,171.745123 C93.5382022,165.964292 101.511798,160.873709 109.532022,155.826267 C117.132584,151.037668 124.639888,146.162788 131.63427,140.597659 C139.281461,134.557985 145.529775,127.482938 151.218539,119.803924 C157.793258,111.003255 163.715169,101.771182 171.828652,94.0058863 C178.496629,87.6642283 186.423596,82.6167862 194.44382,77.8713278 C209.178652,69.1569406 225.498876,61.2622235 236.55,48.1043616 C242.052247,41.5470009 245.922472,33.7385649 247.647753,25.6281451 C249.373034,17.4745848 249.046629,8.97590025 246.155618,1.0380426 C245.922472,0.347794111 244.803371,0.606637296 244.989888,1.34002632 C247.83427,11.6937537 247.927528,22.0043405 244.290449,32.3149274 C241.073034,41.3744388 234.731461,49.0103128 227.270787,55.3519708 C220.416292,61.1759424 212.722472,65.9214008 204.888764,70.4942971 C197.055056,75.0240528 189.081461,79.4243869 181.714045,84.5149695 C173.880337,89.9506764 167.258989,96.3786155 161.523596,103.669365 C154.669101,112.383752 148.840449,121.831529 141.379775,130.07137 C128.976404,143.617497 112.003371,152.590727 96.6623596,162.771892 C85.0516854,170.494047 73.4876404,179.424137 66.8662921,191.374064 C66.6797753,191.762329 67.3325843,192.193734 67.5657303,191.762329 Z" id="Path"></path>
                    <path d="M69.5241573,188.61307 C83.652809,172.30595 92.0460674,153.324116 99.3668539,133.738315 C107.153933,113.074001 126.644944,96.9394424 144.64382,83.4364563 C175.978652,59.924867 213.188764,41.5470009 238.648315,11.3054889 C241.166292,8.32879229 243.544382,5.26581461 245.782584,2.07341534 C246.202247,1.46944791 245.223034,0.951761541 244.803371,1.51258844 C221.395506,34.2131107 184.092135,53.8851927 151.498315,76.8790956 C134.198876,89.0878658 116.852809,103.022257 105.055618,119.976486 C98.6674157,129.122278 96.3359551,139.950552 91.9994382,149.916014 C87.6629213,159.752055 82.4404494,169.329253 76.2853933,178.302483 C74.0005618,181.667445 71.5292135,184.989266 68.9646067,188.181665 C68.6848315,188.56993 69.244382,188.915054 69.5241573,188.61307 Z" id="Path"></path>
                    <path d="M64.3483146,262.253956 C63.788764,254.920066 60.8511236,247.888159 57.9134831,241.158237 C54.4162921,233.090957 50.4061798,225.19624 47.188764,217.04268 C43.9247191,208.802839 42.3859551,200.606138 42.9455056,191.84861 C43.5050562,182.616536 45.7898876,173.513884 47.4685393,164.454373 C49.0073034,156.128251 49.7533708,147.672707 48.4011236,139.260303 C47.0022472,130.373354 42.4792135,122.133512 39.6814607,113.634828 C36.8837079,105.136143 36.6505618,96.6805992 40.1011236,88.3544768 C43.5983146,80.0283543 50.7792135,73.2121505 59.4988764,69.3295027 C60.1983146,69.027519 59.638764,68.0784273 58.9393258,68.3372705 C43.5983146,74.7652096 34.5988764,89.9506764 36.3707865,105.265565 C37.3966292,114.497638 42.1994382,123.082604 45.1837079,131.883272 C48.4011236,141.41733 48.2146067,151.167089 46.7691011,160.95999 C45.4168539,169.846939 43.3651685,178.561326 42.3859551,187.275714 C41.4067416,195.990101 41.5466292,204.704488 44.6707865,213.591437 C50.3595506,230.02798 60.6646067,245.040884 63.9286517,262.297097 C63.9286517,262.59908 64.3949438,262.512799 64.3483146,262.253956 Z" id="Path"></path>
                    <path d="M47.4219101,219.027144 C43.5050562,211.995238 39.4016854,204.920191 33.852809,198.794235 C29.05,193.531091 22.6151685,190.597535 16.5067416,186.887449 C10.0719101,182.961661 3.77696629,178.0005 2.05168539,170.839172 C0.979213483,166.395697 2.61123596,161.77966 3.63707865,157.508748 C4.61629213,153.324116 5.08258427,149.053203 5.31573034,144.782291 C5.8752809,135.938482 5.59550562,127.137814 6.94775281,118.380286 C8.34662921,109.320775 11.797191,100.520106 16.9730337,92.7116704 C21.9623596,85.205218 29.0033708,79.510668 37.1168539,75.5417391 C45.2303371,71.5728103 54.4629213,69.3295027 63.8820225,68.7686758 C64.5348315,68.7255353 64.5348315,67.9058652 63.8820225,67.8627247 C55.5353933,67.0861951 46.9089888,69.760908 39.4483146,72.9101668 C31.7078652,76.2319876 24.8533708,81.0205866 19.5376404,87.0602609 C6.66797753,101.728041 4.66292135,120.192188 4.15,138.354352 C4.01011236,143.013529 3.77696629,147.629566 3.17078652,152.245603 C2.51797753,157.120483 0.746067416,161.822801 0.326404494,166.697681 C-0.233146067,173.255041 3.87022472,178.906451 8.95280899,183.177363 C14.7814607,188.052243 22.1022472,190.856378 28.2106742,195.386133 C36.5573034,201.555229 41.4533708,211.003006 46.8157303,219.242847 C47.0488764,219.631112 47.608427,219.372269 47.4219101,219.027144 Z" id="Path"></path>
                    <path d="M38.7488764,111.909207 C38.4224719,106.948046 43.7382022,101.986884 46.8623596,98.2767988 C50.3129213,94.1784484 54.0432584,90.2958007 58.0067416,86.5425745 C65.8870787,79.0361221 74.7,72.3493399 84.1657303,66.5685088 C84.6786517,66.266525 84.3988764,65.6194171 83.7926966,65.6625576 C74.5601124,66.6979304 65.1876404,67.4313194 56.0016854,68.8118164 C55.488764,68.8980974 55.5820225,69.7177675 56.0949438,69.674627 C65.4207865,69.027519 74.7466292,67.6901626 84.0258427,66.6116493 L83.652809,65.7056981 C73.3477528,72.0042156 63.9286517,79.3381059 55.488764,87.6210877 C51.5719101,91.460595 47.9348315,95.5589454 44.4842697,99.7435769 C41.6865169,103.194819 37.4898876,107.33631 38.3292135,111.952347 C38.3758427,112.16805 38.7955056,112.124909 38.7488764,111.909207 Z" id="Path"></path>
                    <path d="M44.7174157,212.469784 C37.8629213,199.096219 32.5005618,185.248109 28.9101124,170.882312 C27.2314607,164.066108 26.0191011,157.206764 25.3662921,150.304279 C24.9,145.299977 25.1797753,140.338816 24.9466292,135.377655 C23.9674157,116.913508 18.2786517,94.9118374 31.008427,78.777279 C31.4280899,78.2595926 30.5421348,77.7850467 30.1224719,78.2595926 C22.9882022,86.1543097 21.9623596,97.5002693 21.7292135,107.379451 C21.5426966,116.740946 23.1280899,125.97302 23.6876404,135.334515 C24.0140449,140.295676 23.6876404,145.299977 24.1539326,150.261138 C24.7134831,156.90478 25.8792135,163.505281 27.4646067,170.019501 C31.008427,184.773563 36.8837079,199.096219 44.2511236,212.685486 C44.3910112,212.944329 44.8573034,212.728627 44.7174157,212.469784 Z" id="Path"></path>
                    <path d="M43.8314607,81.2794297 C48.8207865,78.6047168 53.3438202,75.6280202 58.752809,73.6435558 C66.5398876,70.7962808 74.8865169,69.8903296 82.8134831,67.5176004 C83.3264045,67.3450383 83.1398876,66.6979304 82.6269663,66.7410709 C74.7466292,67.647022 66.3533708,69.8471891 58.9859551,72.4356209 C53.4370787,74.4200854 47.8882022,77.0947983 43.3651685,80.6754623 C43.0853933,80.9343055 43.458427,81.4951324 43.8314607,81.2794297 Z" id="Path"></path>
                </g>
                <g id="Group" transform="translate(81.000000, 0.000000)" fill="#A72B25">
                    <path d="M101.061523,0.821085595 C104.749219,7.77870564 108.810352,14.6498956 113.011523,21.5643006 C115.06543,25.0215031 117.306055,28.4787056 119.313281,31.9791232 C121.367188,35.4795407 123.374414,38.9799582 125.381641,42.5235908 C129.349414,49.697286 133.457227,57.0870564 136.491406,64.7361169 C138.078516,68.6686848 138.591992,72.6444676 137.565039,76.7931106 C136.491406,81.1146138 133.737305,84.9607516 130.983203,88.5475992 C110.58418,115.643424 89.2515625,142.004593 73.19375,172.082255 C67.7322266,182.281002 62.3173828,193.560125 59.5632812,205.055324 C56.7625,216.636952 56.5757812,228.434656 61.4771484,239.929854 C64.0445313,245.893528 67.7322266,251.381837 70.8130859,257.086221 C73.8005859,262.617745 75.9011719,268.58142 77.3482422,274.631524 C78.7953125,280.595198 79.4955078,286.645303 79.8222656,292.695407 C80.1490234,298.745511 80.2423828,304.882046 80.2423828,310.93215 C80.2423828,311.493946 81.2226563,311.580376 81.2226563,310.975365 C81.0826172,297.10334 80.9892578,283.10167 76.9748047,269.575365 C72.7269531,255.27119 61.7572266,243.603132 59.0964844,228.823591 C57.7894531,221.563466 58.3496094,214.173695 59.9833984,206.956785 C61.6171875,199.739875 64.2779297,192.73904 67.21875,186.12714 C70.7197266,178.305219 74.6408203,170.785804 78.9353516,163.396033 C83.2765625,156.006263 87.8044922,148.789353 92.5658203,141.745303 C94.6197266,138.677035 96.7203125,135.651983 98.8675781,132.626931 C100.968164,129.601879 103.11543,126.620042 105.262695,123.68142 C109.557227,117.717745 114.131836,111.840501 118.566406,106.006472 C122.907617,100.302088 127.342188,94.6409186 131.730078,88.9797495 C135.744531,83.7507307 139.292188,77.9599165 139.012109,71.3480167 C138.778711,65.7300626 135.511133,60.1121086 132.99043,55.0559499 C129.816211,48.6169102 126.315234,42.3507307 122.767578,36.1709812 C119.359961,30.1208768 115.625586,24.1572025 112.03125,18.2367432 C108.436914,12.3162839 104.935938,6.39582463 101.575,0.475365344 C101.388281,0.259290188 100.874805,0.518580376 101.061523,0.821085595 Z" id="Path"></path>
                    <path d="M101.154883,0.691440501 C100.221289,8.47014614 100.174609,16.3784969 100.968164,24.2868476 C101.62168,32.2384134 103.02207,40.2331942 105.216016,48.1847599 C106.336328,52.1605428 107.59668,56.0931106 109.04375,60.0256785 C110.49082,63.9582463 112.124609,67.8043841 113.945117,71.6505219 C115.905664,75.7559499 118.239648,79.7317328 120.340234,83.7939457 C122.44082,87.8561587 124.354688,91.9615866 125.568359,96.3695198 C125.661719,96.7584551 126.268555,96.62881 126.221875,96.2398747 C125.568359,92.2208768 123.887891,88.374739 121.927344,84.6582463 C119.920117,80.9417537 117.632813,77.311691 115.812305,73.6816284 C111.844531,65.9029228 108.903711,57.8217119 106.476367,49.697286 C104.049023,41.5296451 102.508594,33.2755741 101.761719,25.0647182 C100.828125,16.8970772 100.734766,8.72943633 101.481641,0.691440501 C101.52832,0.518580376 101.154883,0.518580376 101.154883,0.691440501 Z" id="Path"></path>
                    <path d="M136.818164,64.822547 C144.286914,94.7273486 142.793164,126.015031 135.044336,156.308768 C133.130469,163.698539 131.029883,171.088309 131.49668,178.780585 C132.010156,187.034656 133.877344,195.115866 133.643945,203.413152 C133.223828,219.445929 127.575586,235.00334 121.880664,249.955741 C118.893164,257.820877 115.952344,265.772443 112.07793,273.291858 C107.923438,281.329854 102.275195,288.114614 95.6933594,294.596868 C90.0451172,300.128392 84.5369141,305.616701 79.4955078,311.666806 C76.9748047,314.691858 74.5474609,317.80334 72.1667969,320.914823 C69.8328125,324.06952 67.5455078,327.267432 65.2582031,330.465344 C55.9222656,343.343424 46.8197266,356.480793 34.4962891,367.370981 C22.8730469,377.958664 7.46875,385.867015 1.68046875,401.381211 C0.140039062,405.356994 -0.280078125,409.505637 0.233398437,413.611065 C0.326757812,414.17286 1.30703125,414 1.26035156,413.48142 C0.3734375,404.449478 4.1078125,396.843633 9.61601562,390.318163 C15.2175781,383.792693 22.7330078,378.390814 29.2214844,373.248225 C35.4765625,368.278497 41.1248047,362.790188 46.30625,356.999374 C51.4876953,351.165344 56.0623047,344.985595 60.6835938,338.76263 C65.4449219,332.280376 70.0195313,325.668476 74.9208984,319.315866 C79.8222656,312.963257 84.9570313,306.783507 90.6986328,301.035908 C96.4402344,295.331524 102.368555,289.843215 107.129883,283.44739 C112.07793,276.749061 115.532227,269.143215 118.566406,261.53737 C124.448047,246.930689 130.329688,232.021503 133.223828,216.550522 C134.624219,209.117537 135.091016,201.554906 134.344141,193.992276 C133.550586,185.565344 131.730078,177.527349 133.037109,169.057203 C134.204102,161.278497 136.724805,153.629436 138.358594,145.893946 C139.852344,138.417745 140.925977,130.855115 141.719531,123.292484 C142.513086,115.859499 142.653125,108.340084 142.466406,100.863883 C142.373047,97.1473904 142.139648,93.3876827 141.812891,89.714405 C141.439453,85.9979123 140.925977,82.3246347 140.272461,78.651357 C139.478906,73.9841336 138.405273,69.3601253 137.004883,64.865762 C137.004883,64.6064718 136.771484,64.6496868 136.818164,64.822547 Z" id="Path"></path>
                    <path d="M101.108203,0.734655532 C103.302148,7.90835073 105.542773,15.168476 107.923438,22.4718163 L109.697266,27.9601253 L111.377734,33.4916493 C112.498047,37.1649269 113.711719,40.8814196 114.925391,44.5546973 C116.185742,48.4008351 117.492773,52.2469729 118.799805,56.0931106 C120.060156,59.9392484 121.367187,63.8286013 122.720898,67.674739 C125.148242,74.7187891 127.435547,82.3246347 130.889844,89.0661795 C131.029883,89.3254697 131.543359,89.1958246 131.45,88.8933194 C129.302734,81.6331942 125.988477,74.6323591 123.514453,67.5018789 C122.160742,63.6557411 120.853711,59.7663883 119.593359,55.9202505 C118.239648,52.0741127 116.979297,48.2279749 115.718945,44.3818372 C110.957617,29.7751566 106.242969,15.211691 101.52832,0.64822547 C101.434961,0.432150313 101.061523,0.518580376 101.108203,0.734655532 Z" id="Path"></path>
                    <path d="M141.626172,116.98309 C135.88457,130.941545 126.875391,143.257829 117.539453,155.358038 C109.557227,165.816075 102.648633,176.317328 98.6341797,188.720042 C89.7183594,215.945511 91.6322266,245.374948 88.6914063,273.551148 C87.384375,286.386013 84.5835938,298.615866 80.3824219,310.84572 C80.2423828,311.321086 80.9425781,311.537161 81.1292969,311.10501 C86.8708984,298.615866 88.7847656,284.484551 90.0451172,271.044676 C91.5388672,256.524426 91.8189453,241.831315 93.0326172,227.26785 C94.1996094,213.006889 96.1134766,198.745929 101.061523,185.176409 C105.636133,172.55762 113.851758,162.099582 121.974023,151.33904 C130.189648,140.621712 137.37832,129.515449 142.046289,117.026305 C142.092969,116.89666 141.719531,116.767015 141.626172,116.98309 Z" id="Path"></path>
                    <path d="M130.096289,305.962422 C137.751758,276.532985 148.254688,245.893528 174.582031,225.452818 C181.303906,220.267015 188.445898,215.599791 194.841016,210.025052 C200.722656,204.882463 205.904102,199.134864 210.61875,192.99833 C215.473438,186.688935 219.721289,179.990605 223.642383,173.119415 C227.516797,166.161795 231.064453,158.9881 234.47207,151.85762 C236.0125,148.659708 237.50625,145.375365 238.95332,142.091023 L238.019727,141.788518 C237.45957,143.862839 236.992773,145.893946 236.572656,147.968267 C236.105859,149.999374 235.732422,152.073695 235.358984,154.104802 C234.612109,158.21023 234.005273,162.358873 233.445117,166.507516 C232.324805,174.848017 231.251172,183.015658 229.477344,191.140084 C228.637109,194.986221 227.656836,198.789144 226.443164,202.548852 C225.276172,206.265344 223.922461,209.938622 222.428711,213.568685 C219.441211,220.785595 215.846875,227.87286 211.739063,234.48476 C207.724609,241.01023 203.10332,247.319624 198.015234,253.153653 C192.973828,258.987683 187.418945,264.475992 181.490625,269.575365 C175.795703,274.458664 169.633984,278.736952 163.332227,282.84238 C157.030469,286.947808 150.495313,290.880376 144.240234,294.985804 C139.152148,298.313361 134.157422,301.727349 129.489453,305.573486 C129.022656,305.962422 129.629492,306.653862 130.142969,306.264927 C141.579492,297.232985 154.323047,289.88643 166.693164,281.891649 C179.390039,273.680793 190.733203,263.395616 200.302539,252.030063 C209.918555,240.491649 217.667383,227.656785 223.362305,213.87119 C224.856055,210.197912 226.163086,206.524635 227.330078,202.808142 C228.450391,199.048434 229.430664,195.245511 230.224219,191.442589 C231.904688,183.793528 233.118359,176.144468 234.098633,168.236117 C234.658789,163.871399 235.265625,159.463466 236.0125,155.098747 C236.385938,152.937996 236.806055,150.734029 237.319531,148.573278 C237.786328,146.412526 238.299805,144.208559 238.906641,142.047808 C239.093359,141.442797 238.253125,141.183507 237.973047,141.745303 L235.358984,147.406472 L232.651563,152.981211 C230.831055,156.697704 229.010547,160.370981 227.143359,164.044259 C223.362305,171.390814 219.301172,178.478079 214.679883,185.349269 C212.439258,188.676827 210.058594,191.917954 207.58457,195.029436 C205.063867,198.140919 202.403125,201.122756 199.602344,203.974948 C193.533984,210.111482 186.578711,215.297286 179.576758,220.353445 C173.088281,225.063883 166.926563,229.990397 161.605078,235.781211 C156.376953,241.485595 151.989063,247.79499 148.208008,254.320459 C144.380273,260.932359 141.206055,267.760334 138.545312,274.804384 C135.837891,281.848434 133.643945,289.022129 131.823438,296.23904 C130.983203,299.436952 130.329687,302.634864 129.676172,305.875992 C129.629492,306.092067 130.049609,306.178497 130.096289,305.962422 Z" id="Path"></path>
                    <path d="M40.7046875,362.703758 C49.9939453,356.394363 59.4699219,350.776409 69.6460938,346.022756 C77.4416016,342.392693 85.4705078,339.151566 93.1726563,335.435073 C100.594727,331.848225 107.59668,327.569937 113.898438,322.470564 C118.239648,318.970146 122.44082,315.080793 126.315234,310.93215 C130.189648,306.783507 133.690625,302.332359 136.491406,297.665136 C136.724805,297.2762 136.164648,296.887265 135.837891,297.2762 C132.430273,301.727349 128.975977,306.005637 125.288281,310.111065 C121.600586,314.216493 117.726172,318.105846 113.291602,321.779123 C106.756445,327.181002 99.2410156,331.502505 91.4921875,335.262213 C83.7433594,338.978706 75.6677734,342.263048 67.7789063,346.022756 C58.1628906,350.603549 48.9203125,355.962213 40.2845703,362.228392 C39.9578125,362.530898 40.3779297,362.963048 40.7046875,362.703758 Z" id="Path"></path>
                    <path d="M130.096289,306.048852 C149.748438,280.595198 174.115234,258.253027 193.113867,231.762213 C211.365625,206.308559 225.60293,177.743424 236.759375,148.054697 C237.50625,146.066806 238.206445,144.035699 238.859961,142.047808 C239,141.572443 238.299805,141.356367 238.113086,141.788518 C226.676563,172.082255 213.092773,201.079541 195.027734,227.44071 C176.589258,254.320459 152.175781,276.532985 132.570313,301.986639 L129.676172,305.789562 C129.489453,306.005637 129.90957,306.308142 130.096289,306.048852 Z" id="Path"></path>
                </g>
            </g>
        </g>
    </g>
</svg>