<?xml version="1.0" encoding="UTF-8"?>
<svg width="320px" height="64px" viewBox="0 0 320 64" version="1.1" xmlns="http://www.w3.org/2000/svg" xmlns:xlink="http://www.w3.org/1999/xlink">
    <!-- Generator: Sketch 53.2 (72643) - https://sketchapp.com -->
    <title>composition-9</title>
    <desc>Created with Sketch.</desc>
    <g id="Welcome" stroke="none" stroke-width="1" fill="none" fill-rule="evenodd">
        <g id="Mobile-Portrait" transform="translate(0.000000, -108.000000)" fill="#282429" fill-rule="nonzero">
            <g id="composition-9" transform="translate(160.000000, 140.000000) scale(-1, -1) translate(-160.000000, -140.000000) translate(0.000000, 108.000000)">
                <path d="M0.974289365,63.75451 C6.04891131,56.6008007 12.1255287,50.2377645 18.3314358,44.4018437 C24.9575345,38.1517608 32.0038249,32.4664445 39.3086947,27.3458946 C52.7548267,17.857817 67.3968888,9.53692352 82.8793341,5.65886004 C91.9942601,3.39979393 101.400088,2.684423 110.676626,3.21153843 C120.082454,3.73865385 129.068091,6.03537105 138.021404,9.3110169 C156.930028,16.2011685 175.967941,24.0325977 196.072494,21.8488338 C205.445999,20.832254 214.366991,17.6319104 223.514239,15.3351932 C231.530203,13.3020337 239.804745,12.7372672 247.982321,13.3773359 C264.111215,14.6951245 279.658305,21.4346717 293.104437,31.7134224 C302.768844,39.0930384 310.720163,48.5434649 318.445224,58.4833558 C319.123995,59.3493311 320.416893,58.219798 319.867411,57.2032183 C315.374593,49.3717891 309.524233,42.6322419 303.318326,36.6457168 C297.144741,30.6968427 290.35703,25.613944 283.18145,21.5099739 C268.862612,13.3020337 252.830686,9.2357147 236.863404,10.1769922 C232.8231,10.4028989 228.782796,11.0053165 224.807137,11.9089429 C220.314318,12.8878716 215.918468,14.4315667 211.457972,15.6740531 C202.149111,18.234328 192.678638,19.7403721 183.111198,19.0626523 C172.961954,18.3472813 162.974323,15.0716355 153.277593,11.6830363 C144.001055,8.44504157 134.821484,4.41637368 125.286366,2.27026088 C107.573673,-1.7207559 88.6004047,-0.478269544 71.4695153,6.22362656 C56.730486,11.9842451 42.8318398,20.9075562 30.0321565,31.1110048 C18.8162723,40.0343159 8.57006107,50.3883689 0.166228544,62.8508836 C-0.35093038,63.4533012 0.45713044,64.4698809 0.974289365,63.75451 L0.974289365,63.75451 Z" id="Path"></path>
            </g>
        </g>
    </g>
</svg>